<svg width="1440" height="400" viewBox="0 0 1440 400" fill="none" xmlns="http://www.w3.org/2000/svg">
<rect width="1440" height="400" fill="white"/>
<mask id="mask0_16_125" style="mask-type:luminance" maskUnits="userSpaceOnUse" x="1229" y="91" width="27" height="26">
<path d="M1254.88 101.395H1242.39V106.304H1249.58C1248.91 109.422 1246.11 111.213 1242.39 111.213C1238.01 111.213 1234.48 107.863 1234.48 103.705C1234.48 99.5471 1238.01 96.1976 1242.39 96.1976C1244.28 96.1976 1245.99 96.8328 1247.33 97.8724L1251.22 94.1763C1248.85 92.2128 1245.8 91 1242.39 91C1234.97 91 1229 96.6596 1229 103.705C1229 110.751 1234.97 116.41 1242.39 116.41C1249.09 116.41 1255.18 111.79 1255.18 103.705C1255.18 102.954 1255.06 102.146 1254.88 101.395Z" fill="white"/>
</mask>
<g mask="url(#mask0_16_125)">
<path d="M1227.78 111.213V96.1978L1238.13 103.705L1227.78 111.213Z" fill="#FBBC05"/>
</g>
<mask id="mask1_16_125" style="mask-type:luminance" maskUnits="userSpaceOnUse" x="1229" y="91" width="27" height="26">
<path d="M1254.88 101.395H1242.39V106.304H1249.58C1248.91 109.422 1246.11 111.213 1242.39 111.213C1238.01 111.213 1234.48 107.863 1234.48 103.705C1234.48 99.5471 1238.01 96.1976 1242.39 96.1976C1244.28 96.1976 1245.99 96.8328 1247.33 97.8724L1251.22 94.1763C1248.85 92.2128 1245.8 91 1242.39 91C1234.97 91 1229 96.6596 1229 103.705C1229 110.751 1234.97 116.41 1242.39 116.41C1249.09 116.41 1255.18 111.79 1255.18 103.705C1255.18 102.954 1255.06 102.146 1254.88 101.395Z" fill="white"/>
</mask>
<g mask="url(#mask1_16_125)">
<path d="M1227.78 96.1978L1238.13 103.705L1242.39 100.183L1257.01 97.9303V89.8452H1227.78V96.1978Z" fill="#EA4335"/>
</g>
<mask id="mask2_16_125" style="mask-type:luminance" maskUnits="userSpaceOnUse" x="1229" y="91" width="27" height="26">
<path d="M1254.88 101.395H1242.39V106.304H1249.58C1248.91 109.422 1246.11 111.213 1242.39 111.213C1238.01 111.213 1234.48 107.863 1234.48 103.705C1234.48 99.5471 1238.01 96.1976 1242.39 96.1976C1244.28 96.1976 1245.99 96.8328 1247.33 97.8724L1251.22 94.1763C1248.85 92.2128 1245.8 91 1242.39 91C1234.97 91 1229 96.6596 1229 103.705C1229 110.751 1234.97 116.41 1242.39 116.41C1249.09 116.41 1255.18 111.79 1255.18 103.705C1255.18 102.954 1255.06 102.146 1254.88 101.395Z" fill="white"/>
</mask>
<g mask="url(#mask2_16_125)">
<path d="M1227.78 111.213L1246.05 97.9303L1250.86 98.5078L1257.01 89.8452V117.566H1227.78V111.213Z" fill="#34A853"/>
</g>
<mask id="mask3_16_125" style="mask-type:luminance" maskUnits="userSpaceOnUse" x="1229" y="91" width="27" height="26">
<path d="M1254.88 101.395H1242.39V106.304H1249.58C1248.91 109.422 1246.11 111.213 1242.39 111.213C1238.01 111.213 1234.48 107.863 1234.48 103.705C1234.48 99.5471 1238.01 96.1976 1242.39 96.1976C1244.28 96.1976 1245.99 96.8328 1247.33 97.8724L1251.22 94.1763C1248.85 92.2128 1245.8 91 1242.39 91C1234.97 91 1229 96.6596 1229 103.705C1229 110.751 1234.97 116.41 1242.39 116.41C1249.09 116.41 1255.18 111.79 1255.18 103.705C1255.18 102.954 1255.06 102.146 1254.88 101.395Z" fill="white"/>
</mask>
<g mask="url(#mask3_16_125)">
<path d="M1257.01 117.566L1238.13 103.705L1235.7 101.973L1257.01 96.1978V117.566Z" fill="#4285F4"/>
</g>
<mask id="mask4_16_125" style="mask-type:luminance" maskUnits="userSpaceOnUse" x="267" y="302" width="27" height="26">
<path d="M292.875 312.395H280.394V317.304H287.578C286.909 320.422 284.108 322.213 280.394 322.213C276.011 322.213 272.479 318.863 272.479 314.705C272.479 310.547 276.011 307.198 280.394 307.198C282.282 307.198 283.986 307.833 285.326 308.872L289.222 305.176C286.848 303.213 283.804 302 280.394 302C272.967 302 267 307.66 267 314.705C267 321.751 272.967 327.41 280.394 327.41C287.091 327.41 293.18 322.79 293.18 314.705C293.18 313.954 293.058 313.146 292.875 312.395Z" fill="white"/>
</mask>
<g mask="url(#mask4_16_125)">
<path d="M265.782 322.213V307.198L276.132 314.705L265.782 322.213Z" fill="#FBBC05"/>
</g>
<mask id="mask5_16_125" style="mask-type:luminance" maskUnits="userSpaceOnUse" x="267" y="302" width="27" height="26">
<path d="M292.875 312.395H280.394V317.304H287.578C286.909 320.422 284.108 322.213 280.394 322.213C276.011 322.213 272.479 318.863 272.479 314.705C272.479 310.547 276.011 307.198 280.394 307.198C282.282 307.198 283.986 307.833 285.326 308.872L289.222 305.176C286.848 303.213 283.804 302 280.394 302C272.967 302 267 307.66 267 314.705C267 321.751 272.967 327.41 280.394 327.41C287.091 327.41 293.18 322.79 293.18 314.705C293.18 313.954 293.058 313.146 292.875 312.395Z" fill="white"/>
</mask>
<g mask="url(#mask5_16_125)">
<path d="M265.782 307.198L276.132 314.705L280.394 311.183L295.006 308.93V300.845H265.782V307.198Z" fill="#EA4335"/>
</g>
<mask id="mask6_16_125" style="mask-type:luminance" maskUnits="userSpaceOnUse" x="267" y="302" width="27" height="26">
<path d="M292.875 312.395H280.394V317.304H287.578C286.909 320.422 284.108 322.213 280.394 322.213C276.011 322.213 272.479 318.863 272.479 314.705C272.479 310.547 276.011 307.198 280.394 307.198C282.282 307.198 283.986 307.833 285.326 308.872L289.222 305.176C286.848 303.213 283.804 302 280.394 302C272.967 302 267 307.66 267 314.705C267 321.751 272.967 327.41 280.394 327.41C287.091 327.41 293.18 322.79 293.18 314.705C293.18 313.954 293.058 313.146 292.875 312.395Z" fill="white"/>
</mask>
<g mask="url(#mask6_16_125)">
<path d="M265.782 322.213L284.047 308.93L288.857 309.508L295.006 300.845V328.566H265.782V322.213Z" fill="#34A853"/>
</g>
<mask id="mask7_16_125" style="mask-type:luminance" maskUnits="userSpaceOnUse" x="267" y="302" width="27" height="26">
<path d="M292.875 312.395H280.394V317.304H287.578C286.909 320.422 284.108 322.213 280.394 322.213C276.011 322.213 272.479 318.863 272.479 314.705C272.479 310.547 276.011 307.198 280.394 307.198C282.282 307.198 283.986 307.833 285.326 308.872L289.222 305.176C286.848 303.213 283.804 302 280.394 302C272.967 302 267 307.66 267 314.705C267 321.751 272.967 327.41 280.394 327.41C287.091 327.41 293.18 322.79 293.18 314.705C293.18 313.954 293.058 313.146 292.875 312.395Z" fill="white"/>
</mask>
<g mask="url(#mask7_16_125)">
<path d="M295.006 328.566L276.132 314.705L273.697 312.973L295.006 307.198V328.566Z" fill="#4285F4"/>
</g>
<mask id="mask8_16_125" style="mask-type:luminance" maskUnits="userSpaceOnUse" x="122" y="217" width="27" height="26">
<path d="M147.875 227.395H135.394V232.304H142.578C141.909 235.422 139.108 237.213 135.394 237.213C131.011 237.213 127.479 233.863 127.479 229.705C127.479 225.547 131.011 222.198 135.394 222.198C137.282 222.198 138.986 222.833 140.326 223.872L144.222 220.176C141.848 218.213 138.804 217 135.394 217C127.967 217 122 222.66 122 229.705C122 236.751 127.967 242.41 135.394 242.41C142.091 242.41 148.18 237.79 148.18 229.705C148.18 228.954 148.058 228.146 147.875 227.395Z" fill="white"/>
</mask>
<g mask="url(#mask8_16_125)">
<path d="M120.782 237.213V222.198L131.132 229.705L120.782 237.213Z" fill="#FBBC05"/>
</g>
<mask id="mask9_16_125" style="mask-type:luminance" maskUnits="userSpaceOnUse" x="122" y="217" width="27" height="26">
<path d="M147.875 227.395H135.394V232.304H142.578C141.909 235.422 139.108 237.213 135.394 237.213C131.011 237.213 127.479 233.863 127.479 229.705C127.479 225.547 131.011 222.198 135.394 222.198C137.282 222.198 138.986 222.833 140.326 223.872L144.222 220.176C141.848 218.213 138.804 217 135.394 217C127.967 217 122 222.66 122 229.705C122 236.751 127.967 242.41 135.394 242.41C142.091 242.41 148.18 237.79 148.18 229.705C148.18 228.954 148.058 228.146 147.875 227.395Z" fill="white"/>
</mask>
<g mask="url(#mask9_16_125)">
<path d="M120.782 222.198L131.132 229.705L135.394 226.183L150.006 223.93V215.845H120.782V222.198Z" fill="#EA4335"/>
</g>
<mask id="mask10_16_125" style="mask-type:luminance" maskUnits="userSpaceOnUse" x="122" y="217" width="27" height="26">
<path d="M147.875 227.395H135.394V232.304H142.578C141.909 235.422 139.108 237.213 135.394 237.213C131.011 237.213 127.479 233.863 127.479 229.705C127.479 225.547 131.011 222.198 135.394 222.198C137.282 222.198 138.986 222.833 140.326 223.872L144.222 220.176C141.848 218.213 138.804 217 135.394 217C127.967 217 122 222.66 122 229.705C122 236.751 127.967 242.41 135.394 242.41C142.091 242.41 148.18 237.79 148.18 229.705C148.18 228.954 148.058 228.146 147.875 227.395Z" fill="white"/>
</mask>
<g mask="url(#mask10_16_125)">
<path d="M120.782 237.213L139.047 223.93L143.857 224.508L150.006 215.845V243.566H120.782V237.213Z" fill="#34A853"/>
</g>
<mask id="mask11_16_125" style="mask-type:luminance" maskUnits="userSpaceOnUse" x="122" y="217" width="27" height="26">
<path d="M147.875 227.395H135.394V232.304H142.578C141.909 235.422 139.108 237.213 135.394 237.213C131.011 237.213 127.479 233.863 127.479 229.705C127.479 225.547 131.011 222.198 135.394 222.198C137.282 222.198 138.986 222.833 140.326 223.872L144.222 220.176C141.848 218.213 138.804 217 135.394 217C127.967 217 122 222.66 122 229.705C122 236.751 127.967 242.41 135.394 242.41C142.091 242.41 148.18 237.79 148.18 229.705C148.18 228.954 148.058 228.146 147.875 227.395Z" fill="white"/>
</mask>
<g mask="url(#mask11_16_125)">
<path d="M150.006 243.566L131.132 229.705L128.697 227.973L150.006 222.198V243.566Z" fill="#4285F4"/>
</g>
<mask id="mask12_16_125" style="mask-type:luminance" maskUnits="userSpaceOnUse" x="172" y="91" width="27" height="26">
<path d="M197.875 101.395H185.394V106.304H192.578C191.909 109.422 189.108 111.213 185.394 111.213C181.011 111.213 177.479 107.863 177.479 103.705C177.479 99.5471 181.011 96.1976 185.394 96.1976C187.282 96.1976 188.986 96.8328 190.326 97.8724L194.222 94.1763C191.848 92.2128 188.804 91 185.394 91C177.967 91 172 96.6596 172 103.705C172 110.751 177.967 116.41 185.394 116.41C192.091 116.41 198.18 111.79 198.18 103.705C198.18 102.954 198.058 102.146 197.875 101.395Z" fill="white"/>
</mask>
<g mask="url(#mask12_16_125)">
<path d="M170.782 111.213V96.1978L181.132 103.705L170.782 111.213Z" fill="#FBBC05"/>
</g>
<mask id="mask13_16_125" style="mask-type:luminance" maskUnits="userSpaceOnUse" x="172" y="91" width="27" height="26">
<path d="M197.875 101.395H185.394V106.304H192.578C191.909 109.422 189.108 111.213 185.394 111.213C181.011 111.213 177.479 107.863 177.479 103.705C177.479 99.5471 181.011 96.1976 185.394 96.1976C187.282 96.1976 188.986 96.8328 190.326 97.8724L194.222 94.1763C191.848 92.2128 188.804 91 185.394 91C177.967 91 172 96.6596 172 103.705C172 110.751 177.967 116.41 185.394 116.41C192.091 116.41 198.18 111.79 198.18 103.705C198.18 102.954 198.058 102.146 197.875 101.395Z" fill="white"/>
</mask>
<g mask="url(#mask13_16_125)">
<path d="M170.782 96.1978L181.132 103.705L185.394 100.183L200.006 97.9303V89.8452H170.782V96.1978Z" fill="#EA4335"/>
</g>
<mask id="mask14_16_125" style="mask-type:luminance" maskUnits="userSpaceOnUse" x="172" y="91" width="27" height="26">
<path d="M197.875 101.395H185.394V106.304H192.578C191.909 109.422 189.108 111.213 185.394 111.213C181.011 111.213 177.479 107.863 177.479 103.705C177.479 99.5471 181.011 96.1976 185.394 96.1976C187.282 96.1976 188.986 96.8328 190.326 97.8724L194.222 94.1763C191.848 92.2128 188.804 91 185.394 91C177.967 91 172 96.6596 172 103.705C172 110.751 177.967 116.41 185.394 116.41C192.091 116.41 198.18 111.79 198.18 103.705C198.18 102.954 198.058 102.146 197.875 101.395Z" fill="white"/>
</mask>
<g mask="url(#mask14_16_125)">
<path d="M170.782 111.213L189.047 97.9303L193.857 98.5078L200.006 89.8452V117.566H170.782V111.213Z" fill="#34A853"/>
</g>
<mask id="mask15_16_125" style="mask-type:luminance" maskUnits="userSpaceOnUse" x="172" y="91" width="27" height="26">
<path d="M197.875 101.395H185.394V106.304H192.578C191.909 109.422 189.108 111.213 185.394 111.213C181.011 111.213 177.479 107.863 177.479 103.705C177.479 99.5471 181.011 96.1976 185.394 96.1976C187.282 96.1976 188.986 96.8328 190.326 97.8724L194.222 94.1763C191.848 92.2128 188.804 91 185.394 91C177.967 91 172 96.6596 172 103.705C172 110.751 177.967 116.41 185.394 116.41C192.091 116.41 198.18 111.79 198.18 103.705C198.18 102.954 198.058 102.146 197.875 101.395Z" fill="white"/>
</mask>
<g mask="url(#mask15_16_125)">
<path d="M200.006 117.566L181.132 103.705L178.697 101.973L200.006 96.1978V117.566Z" fill="#4285F4"/>
</g>
<mask id="mask16_16_125" style="mask-type:luminance" maskUnits="userSpaceOnUse" x="1190" y="277" width="27" height="26">
<path d="M1215.88 287.395H1203.39V292.304H1210.58C1209.91 295.422 1207.11 297.213 1203.39 297.213C1199.01 297.213 1195.48 293.863 1195.48 289.705C1195.48 285.547 1199.01 282.198 1203.39 282.198C1205.28 282.198 1206.99 282.833 1208.33 283.872L1212.22 280.176C1209.85 278.213 1206.8 277 1203.39 277C1195.97 277 1190 282.66 1190 289.705C1190 296.751 1195.97 302.41 1203.39 302.41C1210.09 302.41 1216.18 297.79 1216.18 289.705C1216.18 288.954 1216.06 288.146 1215.88 287.395Z" fill="white"/>
</mask>
<g mask="url(#mask16_16_125)">
<path d="M1188.78 297.213V282.198L1199.13 289.705L1188.78 297.213Z" fill="#FBBC05"/>
</g>
<mask id="mask17_16_125" style="mask-type:luminance" maskUnits="userSpaceOnUse" x="1190" y="277" width="27" height="26">
<path d="M1215.88 287.395H1203.39V292.304H1210.58C1209.91 295.422 1207.11 297.213 1203.39 297.213C1199.01 297.213 1195.48 293.863 1195.48 289.705C1195.48 285.547 1199.01 282.198 1203.39 282.198C1205.28 282.198 1206.99 282.833 1208.33 283.872L1212.22 280.176C1209.85 278.213 1206.8 277 1203.39 277C1195.97 277 1190 282.66 1190 289.705C1190 296.751 1195.97 302.41 1203.39 302.41C1210.09 302.41 1216.18 297.79 1216.18 289.705C1216.18 288.954 1216.06 288.146 1215.88 287.395Z" fill="white"/>
</mask>
<g mask="url(#mask17_16_125)">
<path d="M1188.78 282.198L1199.13 289.705L1203.39 286.183L1218.01 283.93V275.845H1188.78V282.198Z" fill="#EA4335"/>
</g>
<mask id="mask18_16_125" style="mask-type:luminance" maskUnits="userSpaceOnUse" x="1190" y="277" width="27" height="26">
<path d="M1215.88 287.395H1203.39V292.304H1210.58C1209.91 295.422 1207.11 297.213 1203.39 297.213C1199.01 297.213 1195.48 293.863 1195.48 289.705C1195.48 285.547 1199.01 282.198 1203.39 282.198C1205.28 282.198 1206.99 282.833 1208.33 283.872L1212.22 280.176C1209.85 278.213 1206.8 277 1203.39 277C1195.97 277 1190 282.66 1190 289.705C1190 296.751 1195.97 302.41 1203.39 302.41C1210.09 302.41 1216.18 297.79 1216.18 289.705C1216.18 288.954 1216.06 288.146 1215.88 287.395Z" fill="white"/>
</mask>
<g mask="url(#mask18_16_125)">
<path d="M1188.78 297.213L1207.05 283.93L1211.86 284.508L1218.01 275.845V303.566H1188.78V297.213Z" fill="#34A853"/>
</g>
<mask id="mask19_16_125" style="mask-type:luminance" maskUnits="userSpaceOnUse" x="1190" y="277" width="27" height="26">
<path d="M1215.88 287.395H1203.39V292.304H1210.58C1209.91 295.422 1207.11 297.213 1203.39 297.213C1199.01 297.213 1195.48 293.863 1195.48 289.705C1195.48 285.547 1199.01 282.198 1203.39 282.198C1205.28 282.198 1206.99 282.833 1208.33 283.872L1212.22 280.176C1209.85 278.213 1206.8 277 1203.39 277C1195.97 277 1190 282.66 1190 289.705C1190 296.751 1195.97 302.41 1203.39 302.41C1210.09 302.41 1216.18 297.79 1216.18 289.705C1216.18 288.954 1216.06 288.146 1215.88 287.395Z" fill="white"/>
</mask>
<g mask="url(#mask19_16_125)">
<path d="M1218.01 303.566L1199.13 289.705L1196.7 287.973L1218.01 282.198V303.566Z" fill="#4285F4"/>
</g>
<mask id="mask20_16_125" style="mask-type:luminance" maskUnits="userSpaceOnUse" x="1293" y="162" width="27" height="26">
<path d="M1318.88 172.395H1306.39V177.304H1313.58C1312.91 180.422 1310.11 182.213 1306.39 182.213C1302.01 182.213 1298.48 178.863 1298.48 174.705C1298.48 170.547 1302.01 167.198 1306.39 167.198C1308.28 167.198 1309.99 167.833 1311.33 168.872L1315.22 165.176C1312.85 163.213 1309.8 162 1306.39 162C1298.97 162 1293 167.66 1293 174.705C1293 181.751 1298.97 187.41 1306.39 187.41C1313.09 187.41 1319.18 182.79 1319.18 174.705C1319.18 173.954 1319.06 173.146 1318.88 172.395Z" fill="white"/>
</mask>
<g mask="url(#mask20_16_125)">
<path d="M1291.78 182.213V167.198L1302.13 174.705L1291.78 182.213Z" fill="#FBBC05"/>
</g>
<mask id="mask21_16_125" style="mask-type:luminance" maskUnits="userSpaceOnUse" x="1293" y="162" width="27" height="26">
<path d="M1318.88 172.395H1306.39V177.304H1313.58C1312.91 180.422 1310.11 182.213 1306.39 182.213C1302.01 182.213 1298.48 178.863 1298.48 174.705C1298.48 170.547 1302.01 167.198 1306.39 167.198C1308.28 167.198 1309.99 167.833 1311.33 168.872L1315.22 165.176C1312.85 163.213 1309.8 162 1306.39 162C1298.97 162 1293 167.66 1293 174.705C1293 181.751 1298.97 187.41 1306.39 187.41C1313.09 187.41 1319.18 182.79 1319.18 174.705C1319.18 173.954 1319.06 173.146 1318.88 172.395Z" fill="white"/>
</mask>
<g mask="url(#mask21_16_125)">
<path d="M1291.78 167.198L1302.13 174.705L1306.39 171.183L1321.01 168.93V160.845H1291.78V167.198Z" fill="#EA4335"/>
</g>
<mask id="mask22_16_125" style="mask-type:luminance" maskUnits="userSpaceOnUse" x="1293" y="162" width="27" height="26">
<path d="M1318.88 172.395H1306.39V177.304H1313.58C1312.91 180.422 1310.11 182.213 1306.39 182.213C1302.01 182.213 1298.48 178.863 1298.48 174.705C1298.48 170.547 1302.01 167.198 1306.39 167.198C1308.28 167.198 1309.99 167.833 1311.33 168.872L1315.22 165.176C1312.85 163.213 1309.8 162 1306.39 162C1298.97 162 1293 167.66 1293 174.705C1293 181.751 1298.97 187.41 1306.39 187.41C1313.09 187.41 1319.18 182.79 1319.18 174.705C1319.18 173.954 1319.06 173.146 1318.88 172.395Z" fill="white"/>
</mask>
<g mask="url(#mask22_16_125)">
<path d="M1291.78 182.213L1310.05 168.93L1314.86 169.508L1321.01 160.845V188.566H1291.78V182.213Z" fill="#34A853"/>
</g>
<mask id="mask23_16_125" style="mask-type:luminance" maskUnits="userSpaceOnUse" x="1293" y="162" width="27" height="26">
<path d="M1318.88 172.395H1306.39V177.304H1313.58C1312.91 180.422 1310.11 182.213 1306.39 182.213C1302.01 182.213 1298.48 178.863 1298.48 174.705C1298.48 170.547 1302.01 167.198 1306.39 167.198C1308.28 167.198 1309.99 167.833 1311.33 168.872L1315.22 165.176C1312.85 163.213 1309.8 162 1306.39 162C1298.97 162 1293 167.66 1293 174.705C1293 181.751 1298.97 187.41 1306.39 187.41C1313.09 187.41 1319.18 182.79 1319.18 174.705C1319.18 173.954 1319.06 173.146 1318.88 172.395Z" fill="white"/>
</mask>
<g mask="url(#mask23_16_125)">
<path d="M1321.01 188.566L1302.13 174.705L1299.7 172.973L1321.01 167.198V188.566Z" fill="#4285F4"/>
</g>
</svg>
